<svg t="1703830330140" class="icon" viewBox="0 0 1024 1024" version="1.1" xmlns="http://www.w3.org/2000/svg" p-id="1550" width="200" height="200"><path d="M615.282612 679.272004h-212.166418a21.131775 21.131775 0 0 0-20.410409 26.945135c9.759655 34.710426 48.755843 100.354716 126.493618 100.354716s116.733963-65.64429 126.493619-100.354716a21.216642 21.216642 0 0 0-20.41041-26.945135z m-192.859274-155.008785c24.781038-19.561744 44.342781-35.049892 44.342782-78.374275 0-71.372783-34.667993-106.083209-108.714073-106.125642-51.811039 0-93.098624 32.716062-122.759489 97.257086-5.516327 12.008619-13.281618 26.138903-21.471242 41.117852-29.278966 53.550804-59.533897 108.926239-42.136251 146.394828 4.497928 9.802089 16.718714 26.223769 47.143379 26.223769 45.191447 0 114.400133-37.129123 157.512348-84.527101 17.991712-19.731477 33.564727-32.037129 46.082546-41.966517z m360.640478-87.242831c-29.618432-64.498591-70.906017-97.214653-125.263054-97.214653H657.715896c-71.415216 0-106.083209 34.710426-106.083209 106.083209 0 43.324383 19.561744 58.812531 44.342781 78.416708 12.517819 9.886955 28.090834 22.192607 46.040113 41.966518 43.112216 47.397978 112.278468 84.527101 157.512349 84.527101 30.467098 0 42.64545-16.421681 47.143378-26.22377 17.397646-37.511023-12.857285-92.886458-42.136251-146.437261-8.189624-15.021382-15.954915-29.109233-21.471241-41.117852z m154.287419-109.308139C981.948616 311.035969 1018.398807 275.731477 1018.398807 212.505884c0-91.613459-133.452677-212.208851-212.166418-212.208851-51.641306 0-89.958561 33.437427-110.453838 76.50721C649.568705 49.180176 571.194431 42.77275 509.199403 42.77275s-140.369302 6.364993-186.579148 34.031493C302.124979 33.73446 263.807724 0.297033 212.166418 0.297033c-78.713741 0-212.166418 120.595392-212.166418 212.166418 0 63.225593 36.450191 98.572518 81.047572 115.206365-10.693187 34.837726-35.813691 119.492127-38.402122 155.263385C22.319907 524.008619 0 577.941323 0 636.83872c0 15.827615 5.81336 387.203713 509.199403 387.203713s509.199403-371.418531 509.199404-387.203713c0-58.897398-22.319907-112.830101-42.64545-153.905519-2.630864-35.771258-27.708934-120.383226-38.402122-155.220952zM509.199403 981.60915c-461.461959 0-466.76612-330.682579-466.766119-344.77043 0-52.023206 21.471242-101.627714 40.184319-139.011437A21.725841 21.725841 0 0 0 84.866567 488.322228c0-21.216642 21.004475-97.469252 37.383723-150.213824 8.826123 1.103265 17.609813 1.654898 26.266203 1.654898 10.056688 0 18.797945-7.213658 20.792309-17.100613 0.1273-0.466766 10.141555-47.525278 57.836565-95.220289 23.847505-23.847505 79.85944-50.750207 99.421184-59.151997A21.046909 21.046909 0 0 0 339.466269 148.855959c0-9.929388-1.145699-19.943643-2.97033-29.873032 24.908337-21.174209 88.51583-33.776894 172.703464-33.776894 84.145201 0 147.795127 12.560252 172.703465 33.776894-1.824631 9.886955-2.97033 19.90121-2.97033 29.830599a21.216642 21.216642 0 0 0 12.899718 19.51931c19.561744 8.359357 75.573678 35.304492 99.421183 59.151997 47.695011 47.695011 57.709266 94.753522 57.836566 95.220289a21.216642 21.216642 0 0 0 20.792309 17.100613c8.65639 0 17.44008-0.551633 26.266202-1.654898 16.421681 52.787005 37.383723 128.954749 37.383723 150.171391 0 3.267363 0.806232 6.534726 2.248964 9.505055 18.713078 37.383723 40.18432 87.030665 40.18432 139.011437 0 14.08785-5.30416 344.770429-466.76612 344.77043z" p-id="1551" data-spm-anchor-id="a313x.search_index.0.i5.42423a81e2BUZr" class="" fill="#000000"></path></svg>